<svg xmlns="http://www.w3.org/2000/svg" viewBox="0 0 176.08 170.55"><defs><style>.cls-1{fill:#fcea90;}.cls-2{fill:none;stroke:#d39000;stroke-miterlimit:10;}.cls-3{fill:#355fb0;}</style></defs><g id="Layer_13" data-name="Layer 13"><path class="cls-1" d="M215.91,180.37,95.1,200.62c-5.22.48-9.67-4.66-9.71-11.21L84.78,86.92c0-8.63,6.28-15.12,13-13.37l118.84,41.77c7.09,1.85,12.15,9.72,12.06,18.79l-1.17,30.77C227.47,173,222.42,179.77,215.91,180.37Z" transform="translate(-53.14 -58.7)"/></g><g id="Layer_13_copy" data-name="Layer 13 copy"><path class="cls-2" d="M209.75,187.71,87.33,192c-5.24-.21-9-5.88-8.17-12.38L91.92,78c1.07-8.57,8.2-14.18,14.67-11.56L219,123.31c6.79,2.76,10.78,11.23,9.51,20.21l-5.17,30.35C222.17,182,216.28,188,209.75,187.71Z" transform="translate(-53.14 -58.7)"/></g><g id="Layer_14" data-name="Layer 14"><path class="cls-3" d="M209.84,183.26c-.92-.95-10-4.54-10-4.54l-6.43-11.17,3-1.73,4.88-85.23L114.12,90.8,109,79.56s-12.64-3.64-12.82-4.35S66.1,85.37,64.38,85.79A2,2,0,0,0,63,87.2a2.7,2.7,0,0,0,1,3c.93.65,1.5.25,1.5.25l5.53,4.39,4.47,10.66s-3,.45-2.32,2.45c.73,2.26,2.52,1.5,2.52,1.5L110,163.33l12,5.3c-3.69,1.91-3,3.5-3,3.5s-6.57,1.87-4.92,7.46,4.62,7.09,6.78,7.34c3.23.37,4.55-1.62,7-3.47a3.28,3.28,0,0,0,.72-4.43,87.31,87.31,0,0,1,10.44,8.44,188.47,188.47,0,0,1,15.78,18.37c2.83,4,6.32,4.44,6.32,4.44s-3.24,4.8-.75,11.69a11.8,11.8,0,0,0,4.92,6,8.68,8.68,0,0,0,8.52.32l3.75-1.92A7.55,7.55,0,0,0,181.7,220a24.69,24.69,0,0,0-.16-3.79c-.67-5.83-6.09-8.75-6.09-8.75l18.27-7.25c3,11,8,12.44,11.81,11.85,2.83-.44,5.27-2.17,7.78-3.49,2.82-1.47,2.93-3.52,3.14-6.58a21.73,21.73,0,0,0,0-3.87c-.45-3.89-5.72-8.34-5.72-8.34C211.5,187.85,211.49,185,209.84,183.26Zm-18.19-21.78L178.52,158l14-5.45Zm-54.76,8.34,0,.13-4.33-1.68.24-.06-.26-.1L142,165.4l5.2,2.21,6.23,8.76-3.87-1.53-3-.76.57-.21Zm19.19-42.35,4.42,10.42-29.93-7.13,15.93-6.18Zm-6.17-22.73,3.64-2.15,36.13.61-34.34,14Zm6,36.78L139,147.93l-6.24-11.46Zm-7-22.48-26.16-3.46,23.64-9.13,5.3,11.52Zm-5.4,2.69-15.9,6-4.43-8Zm-7.4,28.17,7.34,11.7-18.23-7.27-5.83-9.82Zm-.64,13.16-4.55,1.62-2-3.76Zm11.62-3.61-5.67-8.11,22.39-8.51,5.6,14.12-11,4C154.63,158.34,147.09,159.45,147.09,159.45Zm12.15-35,29.6,3.71-24.05,9.17Zm-.9,41.48,15.08,5-15.26,5.76-6-8.52Zm6.1-2.75,8.85-3.18,14.22,4.75-8.19,3.77Zm2.45-21.61,22.38,8.24-15.74,5.88Zm22.6,27.55,3.36,6.06-8.65-4.4Zm3.74-22.28-24.86-6.64,25.72-9.83Zm1.42-22.61-37.07-4.38,39.32-15.93ZM196.71,99l-34.61.27,35.5-14.5ZM186.57,85.46,147.93,101l2.37-9.33ZM115.84,95.62,146,92l-1.77,10.69-24.62,10.06Zm14.58,48.18L114,138.59l-5.94-10.29L124.37,132Zm-9.36-16.7L105,123.3l-5.17-8.23,15.83,2.86ZM115.21,113,83.8,107.26l27.5-11ZM70.1,88.88,94,79.24l11,3.53,4,9.77L80,103.45s-4.06-9-4.72-10.59S70.1,88.88,70.1,88.88Zm10.28,22.48,13.88,2.33,5.48,8.41-13.93-3.58Zm8.69,11.86,13.37,3.46,6.8,10.58-14.82-5.1Zm14.69,22.39-5.25-7.46,13.8,4.11,5.28,9.7Zm9.14,14.76-5.54-8.64,13.6,5.4,5.29,8.7Zm48.45,45.32c-2.51-1.13-11.89-12.81-19.6-21a77.76,77.76,0,0,0-16.64-13.19l2.58-1,27.13,10.6,14.85,24.69S163.85,206.82,161.35,205.69Zm32.54-10-20.06,8.05-13.92-22.6,19.07-8,17.64,8.27,5.47,8.17C192.25,194,193.89,195.73,193.89,195.73Z" transform="translate(-53.14 -58.7)"/><polygon class="cls-3" points="18.77 127.17 34.78 128.88 22.55 142.02 38.46 133.18 49.33 154.01 44.26 131.23 60.7 129.25 44.8 124.31 54.82 112.35 40.26 121.58 32.16 105.86 35.92 123.56 18.77 127.17"/><polygon class="cls-3" points="139.94 9.21 148.15 12.51 139.71 17.59 149.45 15.32 152.06 27.9 152.81 15.16 161.8 16.57 154.13 11.6 161.23 6.8 152.15 9.48 150.23 0 149.56 9.88 139.94 9.21"/><polygon class="cls-3" points="0.13 58.92 5.23 61.08 0 64.36 6.04 62.91 7.69 71.09 8.13 62.81 13.71 63.76 8.94 60.51 13.33 57.41 7.7 59.13 6.49 52.96 6.09 59.37 0.13 58.92"/></g></svg>